HIERARCHY
ROOT Hips
{
	OFFSET -0.001795 -0.223333 0.028219
	CHANNELS 6 Xposition Yposition Zposition Zrotation Yrotation Xrotation 
	JOINT LeftUpLeg
	{
		OFFSET 0.069520 -0.091406 -0.006815
		CHANNELS 3 Zrotation Yrotation Xrotation
		JOINT LeftLeg
		{
			OFFSET 0.034277 -0.375199 -0.004496
			CHANNELS 3 Zrotation Yrotation Xrotation
			JOINT LeftFoot
			{
				OFFSET -0.013596 -0.397961 -0.043693
				CHANNELS 3 Zrotation Yrotation Xrotation
				JOINT LeftToe
				{
					OFFSET 0.026358 -0.055791 0.119288
					CHANNELS 3 Zrotation Yrotation Xrotation
					End Site
					{
						OFFSET 0.000000 0.000000 0.000000
					}
				}
			}
		}
	}
	JOINT RightUpLeg
	{
		OFFSET -0.067670 -0.090522 -0.004320
		CHANNELS 3 Zrotation Yrotation Xrotation
		JOINT RightLeg
		{
			OFFSET -0.038290 -0.382569 -0.008850
			CHANNELS 3 Zrotation Yrotation Xrotation
			JOINT RightFoot
			{
				OFFSET 0.015774 -0.398415 -0.042312
				CHANNELS 3 Zrotation Yrotation Xrotation
				JOINT RightToe
				{
					OFFSET -0.025372 -0.048144 0.123348
					CHANNELS 3 Zrotation Yrotation Xrotation
					End Site
					{
						OFFSET 0.000000 0.000000 0.000000
					}
				}
			}
		}
	}
	JOINT Spine
	{
		OFFSET -0.002533 0.108963 -0.026696
		CHANNELS 3 Zrotation Yrotation Xrotation
		JOINT Spine1
		{
			OFFSET 0.005487 0.135180 0.001092
			CHANNELS 3 Zrotation Yrotation Xrotation
			JOINT Spine2
			{
				OFFSET 0.001457 0.052922 0.025425
				CHANNELS 3 Zrotation Yrotation Xrotation
				JOINT Neck
				{
					OFFSET -0.002778 0.213870 -0.042857
					CHANNELS 3 Zrotation Yrotation Xrotation
					JOINT Head
					{
						OFFSET 0.005152 0.064970 0.051349
						CHANNELS 3 Zrotation Yrotation Xrotation
						End Site
						{
							OFFSET 0.000000 0.000000 0.000000
						}
					}
				}
				JOINT LeftShoulder
				{
					OFFSET 0.078845 0.121749 -0.034090
					CHANNELS 3 Zrotation Yrotation Xrotation
					JOINT LeftArm
					{
						OFFSET 0.090977 0.030469 -0.008868
						CHANNELS 3 Zrotation Yrotation Xrotation
						JOINT LeftForeArm
						{
							OFFSET 0.259612 -0.012772 -0.027456
							CHANNELS 3 Zrotation Yrotation Xrotation
							JOINT LeftHand
							{
								OFFSET 0.249234 0.008986 -0.001171
								CHANNELS 3 Zrotation Yrotation Xrotation
								End Site
								{
									OFFSET 0.000000 0.000000 0.000000
								}
							}
						}
					}
				}
				JOINT RightShoulder
				{
					OFFSET -0.081759 0.118833 -0.038615
					CHANNELS 3 Zrotation Yrotation Xrotation
					JOINT RightArm
					{
						OFFSET -0.096012 0.032551 -0.009143
						CHANNELS 3 Zrotation Yrotation Xrotation
						JOINT RightForeArm
						{
							OFFSET -0.253742 -0.013329 -0.021401
							CHANNELS 3 Zrotation Yrotation Xrotation
							JOINT RightHand
							{
								OFFSET -0.255298 0.007772 -0.005559
								CHANNELS 3 Zrotation Yrotation Xrotation
								End Site
								{
									OFFSET 0.000000 0.000000 0.000000
								}
							}
						}
					}
				}
			}
		}
	}
}
MOTION
Frames: 6
Frame Time: 0.050000
-0.626496 0.888585 1.704881 -3.001039 -33.113416 -1.872917 4.559204 2.033438 14.298899 6.748555 -1.056623 20.954058 -2.928966 -10.647500 -14.368669 0.000000 0.000000 0.000000 -4.927292 3.647265 -27.464477 -2.228866 3.618180 24.439511 5.758281 13.342916 2.294756 0.000000 0.000000 0.000000 4.295151 -0.461784 13.802574 -1.647880 0.919267 1.038480 0.002361 -11.030263 1.865282 -3.309932 1.099462 -11.869046 0.000000 0.000000 0.000000 -24.885679 3.520048 3.491200 -42.833497 -27.662359 2.531634 5.954299 -44.084345 2.614253 0.000000 0.000000 0.000000 22.531203 -8.100629 -13.757138 42.434914 -17.031770 -8.625136 11.747979 26.377917 1.833701 0.000000 0.000000 0.000000 
-0.671172 0.893842 1.727735 -4.676253 -32.762245 0.436366 6.034987 1.537326 11.538412 8.351757 -1.139981 26.969033 -1.917022 -5.554391 -7.091533 0.000000 0.000000 0.000000 -2.333380 4.066144 -27.532452 -1.536402 4.163048 27.880240 4.381979 12.234606 0.232846 0.000000 0.000000 0.000000 6.401744 -0.682345 12.531991 -2.093324 1.166561 1.172539 0.323268 -9.834757 1.699122 -3.227849 1.197902 -11.337200 0.000000 0.000000 0.000000 -26.094082 3.525522 3.351926 -43.994672 -25.216188 1.718657 5.014691 -45.577334 3.039976 0.000000 0.000000 0.000000 22.000504 -8.486469 -13.314938 43.240267 -15.072854 -8.233563 12.743500 24.656792 1.971004 0.000000 0.000000 0.000000 
-0.709409 0.903021 1.748904 -5.789423 -30.876271 0.797552 7.073030 0.851912 5.314400 11.036067 -1.218392 39.833012 -1.958804 -3.990616 0.540122 0.000000 0.000000 0.000000 -0.317562 3.551317 -24.241482 -1.335496 4.008934 27.971410 3.549844 11.046950 -0.877797 0.000000 0.000000 0.000000 8.000027 -0.862322 13.231825 -2.677468 1.396548 0.753467 2.024910 -9.628575 2.434128 -4.778303 1.863854 -15.205510 0.000000 0.000000 0.000000 -27.792718 4.528662 2.768334 -45.251349 -23.413595 0.944674 3.706712 -45.194992 3.528840 0.000000 0.000000 0.000000 20.339546 -6.691989 -11.493415 44.954928 -11.371020 -7.409068 13.258917 24.149688 2.012811 0.000000 0.000000 0.000000 
-0.740679 0.911577 1.768515 -5.775192 -28.579110 1.023241 7.270844 0.397822 -3.038310 11.610796 -0.678089 52.148602 -2.912338 -5.433339 1.933752 0.000000 0.000000 0.000000 0.025106 2.757196 -20.563733 -0.317809 3.272196 26.703123 1.906400 9.671822 -3.715610 0.000000 0.000000 0.000000 8.339760 -0.963572 13.679574 -1.998102 0.927220 -0.667667 1.181011 -7.265162 3.531173 -4.427156 1.827215 -16.223735 0.000000 0.000000 0.000000 -28.686368 4.312186 1.982690 -45.233014 -21.155752 0.103173 1.799413 -43.389645 3.720067 0.000000 0.000000 0.000000 19.801319 -5.979743 -10.136979 45.892008 -7.787342 -6.400772 13.543369 24.983900 2.288333 0.000000 0.000000 0.000000 
-0.766355 0.920064 1.788876 -5.155353 -25.816937 0.833320 6.454623 0.181207 -11.078175 9.900807 0.113826 58.438795 -1.308406 -4.036660 -3.400919 0.000000 0.000000 0.000000 -0.220318 1.988426 -16.672949 -0.089804 2.551795 23.979722 1.619685 9.287150 -4.326056 0.000000 0.000000 0.000000 7.576791 -0.990683 14.416349 -1.988839 0.906972 -0.885802 1.717867 -5.056704 3.821125 -4.586960 2.179161 -17.172602 0.000000 0.000000 0.000000 -28.702406 4.162727 0.919358 -46.099795 -18.933755 -0.391897 -1.069087 -41.870679 4.312303 0.000000 0.000000 0.000000 20.294538 -5.017783 -9.111675 45.056724 -3.864184 -4.736905 14.559328 26.061411 2.769974 0.000000 0.000000 0.000000 
-0.788432 0.927112 1.811416 -4.424227 -22.034381 0.827401 5.955506 0.097225 -17.754917 5.748860 1.339437 57.297118 0.478909 -0.711796 -5.293632 0.000000 0.000000 0.000000 -0.771679 1.365538 -12.890694 0.190775 1.820881 20.820702 0.506093 6.174928 -4.816282 0.000000 0.000000 0.000000 7.311064 -1.054420 14.232807 -1.402725 0.636061 -0.877499 0.762395 -1.245785 2.873520 -3.251630 1.966143 -15.895618 0.000000 0.000000 0.000000 -29.888401 3.254855 -0.621411 -44.104338 -15.124131 -1.271753 -7.227180 -39.072339 5.395602 0.000000 0.000000 0.000000 19.393361 -5.126253 -7.468030 45.482079 0.098602 -3.555280 13.875078 27.720498 3.163776 0.000000 0.000000 0.000000 
